<?xml version="1.0" encoding="utf-8"?>
<!-- Generator: Adobe Illustrator 19.2.0, SVG Export Plug-In . SVG Version: 6.00 Build 0)  -->
<svg version="1.1" id="Layer_1" xmlns:sketch="http://www.bohemiancoding.com/sketch/ns"
	 xmlns="http://www.w3.org/2000/svg" xmlns:xlink="http://www.w3.org/1999/xlink" x="0px" y="0px" viewBox="0 0 48 34"
	 style="enable-background:new 0 0 48 34;" xml:space="preserve">
<style type="text/css">
	.st0{fill:#FF00BF;}
</style>
<title>logo_tiny</title>
<desc>Created with Sketch.</desc>
<g id="Page-1" sketch:type="MSPage">
	<g id="logos" transform="translate(-399.000000, -132.000000)" sketch:type="MSArtboardGroup">
		<path id="logo_tiny" sketch:type="MSShapeGroup" class="st0" d="M405,158.6c-1,0-2.4-0.2-3.8-1.3c-1.4-1.2-2.2-3.2-2.2-5.3v-19.4
			h6.7V152c0,3.3,1.5,5.1,2.4,5.8C407.5,158.2,406.3,158.6,405,158.6z M426.2,158.1c-0.2,0-0.5,0-0.7,0v-16.7c0-5.2,4.2-9.4,9.4-9.4
			c4.4,0,8.3,3.1,9.2,7.4l0.1,0.2h2.4v6.7h-2.2v2.4c0,1.4,1.1,2.6,2.5,2.7v6.6c-5-0.2-9.1-4.3-9.1-9.4v-7.3c0-1.5-1.2-2.8-2.8-2.8
			c-1.4,0-2.6,1.1-2.7,2.5h0l0,0.3v2.5h3.7v6.7h-3.7v0.9c0,2.2-0.8,4.2-2.2,5.3C428.9,157.7,427.6,158.1,426.2,158.1z M414.1,165.6
			c-1.4,0-2.9-0.2-4.4-0.6v-6c0.9,0.3,2.2,0.6,3.4,0.6c0.2,0,0.4,0,0.6,0c2-0.2,3.4-1.2,3.6-2.7l0.1-0.9l-0.6,0.6
			c0,0-1.3,1.2-3.4,1.2c-0.6,0-1.2-0.1-1.8-0.2c-3.3-0.9-4-3.6-4-5.8v-12.3h6.7V150c0,0.8,0.6,1.4,1.4,1.4s1.4-0.6,1.4-1.4v-10.4
			h6.7v16.5c0,4.8-2.8,8.4-7,9.2C415.9,165.6,415,165.6,414.1,165.6L414.1,165.6z"/>
	</g>
</g>
</svg>
