<?xml version="1.0" encoding="utf-8"?>
<!-- Generator: Adobe Illustrator 20.0.0, SVG Export Plug-In . SVG Version: 6.00 Build 0)  -->
<svg version="1.1" id="mq-logo" xmlns="http://www.w3.org/2000/svg" xmlns:xlink="http://www.w3.org/1999/xlink" x="0px" y="0px"
	 viewBox="0 0 500 100" style="enable-background:new 0 0 500 100;" xml:space="preserve" width="250px">
<style type="text/css">
	.st0{fill:#ffffff;}
</style>
<g>
	<path class="st0" d="M462.7,24.6V13.5h-27.5v26.8l-0.5-1.4c-3-8.8-14.2-16-24.9-16c-11,0-20.2,6.4-23.2,15
		c-4.7-8.9-14.1-15-24.9-15c-9.3,0-17.5,4.5-22.6,11.4v-9.8h-53.7l-13,0l-2.4,3.5c-4.7-3.3-10.4-5.1-16.2-5.1
		c-11.2,0-20.8,6.5-25.4,15.9c-4.5-9.5-14.2-16-25.4-16c-5.8,0-11.5,1.8-16.2,5.2l-2.4-3.5H168v0h-10.8l-2.4,3.5
		c-4.7-3.3-10.4-5.2-16.2-5.2c-10,0-18.8,5.2-23.8,13.1c-2.4-8.3-8.9-12.9-18.7-12.9c-6.9,0-11.4,1.9-16.6,7.3
		c-3.8-4.9-8.8-7.3-15.4-7.3c-5.7,0-9.6,1.5-14.1,5.7l-2.3-4.2H31.1v52.6h34.8l0-5.9l10.8,6.3l11.5-6.4v6h27.6v-9.3
		c5.1,7,13.4,11.5,22.7,11.5c5.9,0,11.7-1.9,16.4-5.3l2.4,2.9H168v13.4h20.9V75.5c4.2,2.4,9.1,3.8,14,3.8c11.2,0,20.8-6.5,25.4-15.9
		c4.5,9.5,14.2,16,25.4,16c5,0,9.8-1.3,14-3.8v14.8h20.9V68c5.1,6.8,13.3,11.3,22.4,11.3c11.1,0,20.7-6.5,25.2-15.9
		c4.6,9.4,14.2,16,25.4,16h21.6V60.9c2.3-1.8,4.5-4.1,5.7-6.3c1,1.4,2.2,2.5,3.4,3.4l-6.1,5.3l0.6,1.8c3,8.8,14.2,16,24.9,16
		c11.4,0,20.9-6.8,23.4-16v14.3h27.6V46.5h10.4V24.6H462.7z M110.3,71.6H93.8v-9.9l-17,9.5l-16.4-9.6l0,10H36.7V30.2h7.7l4.3,8
		l2.6-2.9c4.7-5.1,7.6-6.6,12.7-6.6c5.9,0,9.6,2.2,12.7,7.6l2,3.5l2.6-3.1c5.2-6.2,8.5-8,14.7-8c9.4,0,14.2,5.2,14.2,15.4V71.6z
		 M168,71.4h-8l-4.3-5.2l-2.1,1.9c-4.2,3.7-9.5,5.7-15,5.7c-12.5,0-22.7-10.2-22.7-22.7c0-12.5,10.2-22.7,22.7-22.7
		c5.5,0,10.8,2,15,5.7l2.3,2.1l4.3-6.2h7.9V71.4z M203,73.7c-5.5,0-10.8-2-15-5.7l-4.6-4.1v20.8h-9.8V77h0V30.1h7.8l4.3,6.1l2.3-2.1
		c4.2-3.7,9.5-5.7,15-5.7c12.5,0,22.6,10.2,22.6,22.6S215.4,73.7,203,73.7z M283.2,51.3v33.6h-9.8V64l-4.6,4.1
		c-4.1,3.7-9.5,5.7-15,5.7c-12.5,0-22.6-10.2-22.6-22.6c0-12.5,10.2-22.6,22.6-22.6c5.5,0,10.8,2,15,5.7l2.3,2.1l4.3-6.1l7.8,0V51.3
		z M333.6,51.1C333.6,51.1,333.6,51.2,333.6,51.1c0,0.1,0,0.1,0,0.2v0c0,12.4-10.1,22.4-22.4,22.4c-12.4,0-22.4-10.1-22.4-22.4V30.2
		h44.9V51.1z M374.1,60.6l-8.7,5.2h12.5v8.1h-16c-12.4,0-22.6-10.1-22.6-22.5v-0.2c0-12.4,10.2-22.5,22.6-22.5
		c12.5,0,22.6,10.2,22.6,22.6C384.4,52.9,379.5,57.4,374.1,60.6z M411.7,75.4c-7.6,0-15.8-4.7-18.9-10.5l10.5-9.1l-5.4-1.2
		c-0.1,0-6.6-1.6-6.8-11c0.2-8.3,8.4-15.1,18.6-15.1c7.6,0,15.8,4.7,18.9,10.5l-11,9.5l5.7,1.1c0.3,0.1,6.8,1.4,6.9,10.7
		C430.1,68.7,421.9,75.4,411.7,75.4z M435.2,55.1c-1.2-4.4-3.7-7.3-6.2-9l6.2-5.4V55.1z M467.7,41h-10.4v32.7h-16.5V19.1h16.4v11.1
		h10.5V41z"/>
</g>
</svg>
