<?xml version="1.0" encoding="UTF-8" standalone="no"?>
<svg
   xmlns:sketch="http://www.bohemiancoding.com/sketch/ns"
   xmlns:dc="http://purl.org/dc/elements/1.1/"
   xmlns:cc="http://creativecommons.org/ns#"
   xmlns:rdf="http://www.w3.org/1999/02/22-rdf-syntax-ns#"
   xmlns:svg="http://www.w3.org/2000/svg"
   xmlns="http://www.w3.org/2000/svg"
   id="svg2"
   version="1.1"
   viewBox="0 0 18 18"
   height="18"
   width="18">
  <metadata
     id="metadata58">
    <rdf:RDF>
      <cc:Work
         rdf:about="">
        <dc:format>image/svg+xml</dc:format>
        <dc:type
           rdf:resource="http://purl.org/dc/dcmitype/StillImage" />
        <dc:title>btn_google_light_normal_ios</dc:title>
      </cc:Work>
    </rdf:RDF>
  </metadata>
  <!-- Generator: Sketch 3.3.3 (12081) - http://www.bohemiancoding.com/sketch -->
  <title
     id="title4">btn_google_light_normal_ios</title>
  <desc
     id="desc6">Created with Sketch.</desc>
  <defs
     id="defs8">
    <filter
       id="filter-1"
       filterUnits="objectBoundingBox"
       height="2"
       width="2"
       y="-0.5"
       x="-0.5">
      <feOffset
         id="feOffset11"
         result="shadowOffsetOuter1"
         in="SourceAlpha"
         dy="1"
         dx="0" />
      <feGaussianBlur
         id="feGaussianBlur13"
         result="shadowBlurOuter1"
         in="shadowOffsetOuter1"
         stdDeviation="0.5" />
      <feColorMatrix
         id="feColorMatrix15"
         result="shadowMatrixOuter1"
         type="matrix"
         in="shadowBlurOuter1"
         values="0 0 0 0 0   0 0 0 0 0   0 0 0 0 0  0 0 0 0.168 0" />
      <feOffset
         id="feOffset17"
         result="shadowOffsetOuter2"
         in="SourceAlpha"
         dy="0"
         dx="0" />
      <feGaussianBlur
         id="feGaussianBlur19"
         result="shadowBlurOuter2"
         in="shadowOffsetOuter2"
         stdDeviation="0.5" />
      <feColorMatrix
         id="feColorMatrix21"
         result="shadowMatrixOuter2"
         type="matrix"
         in="shadowBlurOuter2"
         values="0 0 0 0 0   0 0 0 0 0   0 0 0 0 0  0 0 0 0.084 0" />
      <feMerge
         id="feMerge23">
        <feMergeNode
           id="feMergeNode25"
           in="shadowMatrixOuter1" />
        <feMergeNode
           id="feMergeNode27"
           in="shadowMatrixOuter2" />
        <feMergeNode
           id="feMergeNode29"
           in="SourceGraphic" />
      </feMerge>
    </filter>
    <rect
       rx="2"
       height="40"
       width="40"
       y="0"
       x="0"
       id="path-2" />
  </defs>
  <g
     id="9-PATCH"
     sketch:type="MSArtboardGroup"
     transform="translate(-622,-174)"
     style="fill:none;fill-rule:evenodd;stroke:none;stroke-width:1" />
  <g
     sketch:type="MSLayerGroup"
     id="logo_googleg_48dp"
     style="fill:none;fill-rule:evenodd;stroke:none;stroke-width:1">
    <path
       style="fill:#4285f4"
       sketch:type="MSShapeGroup"
       id="Shape"
       d="m 17.64,9.2045455 c 0,-0.6381819 -0.05727,-1.2518182 -0.163636,-1.8409091 L 9,7.3636364 9,10.845 l 4.843636,0 C 13.635,11.97 13.000909,12.923182 12.047727,13.561364 l 0,2.258182 2.908637,0 C 16.658182,14.252727 17.64,11.945455 17.64,9.2045455 l 0,0 z" />
    <path
       style="fill:#34a853"
       sketch:type="MSShapeGroup"
       id="path47"
       d="m 9,18 c 2.43,0 4.467273,-0.805909 5.956364,-2.180454 l -2.908637,-2.258182 c -0.805909,0.54 -1.836818,0.859091 -3.047727,0.859091 -2.3440909,0 -4.3281818,-1.583182 -5.0359091,-3.710455 l -3.00681817,0 0,2.331818 C 2.4381818,15.983182 5.4818182,18 9,18 l 0,0 z" />
    <path
       style="fill:#fbbc05"
       sketch:type="MSShapeGroup"
       id="path49"
       d="M 3.9640909,10.71 C 3.7840909,10.17 3.6818182,9.5931818 3.6818182,9 c 0,-0.5931818 0.1022727,-1.17 0.2822727,-1.71 l 0,-2.3318182 -3.00681817,0 C 0.34772727,6.1731818 0,7.5477273 0,9 c 0,1.452273 0.34772727,2.826818 0.95727273,4.041818 L 3.9640909,10.71 l 0,0 z" />
    <path
       style="fill:#ea4335"
       sketch:type="MSShapeGroup"
       id="path51"
       d="m 9,3.5795455 c 1.321364,0 2.507727,0.4540909 3.440455,1.3459091 L 15.021818,2.3440909 C 13.463182,0.89181818 11.425909,0 9,0 5.4818182,0 2.4381818,2.0168182 0.95727273,4.9581818 L 3.9640909,7.29 C 4.6718182,5.1627273 6.6559091,3.5795455 9,3.5795455 l 0,0 z" />
    <path
       sketch:type="MSShapeGroup"
       id="path53"
       d="M 0,0 18,0 18,18 0,18 0,0 Z" />
  </g>
  <g
     transform="translate(-15,-15)"
     sketch:type="MSLayerGroup"
     id="handles_square"
     style="fill:none;fill-rule:evenodd;stroke:none;stroke-width:1" />
</svg>
